#N canvas 169 49 432 242 10;
Music and Acoustics (IEM) \, University of Music and Performing Arts
\, Graz \, Austria;
#N canvas 25 49 420 300 META 0;
#X text 10 10 VERSION 0.02-3;
#X text 10 30 AUTHOR Bryan Jurish <moocow.bovine@gmail.com>;
#X text 10 50 NAME flite;
#X text 10 70 LICENSE GPL-2;
#X text 9 91 DESCRIPTION Speech synthesis for Pd;
#X restore 20 20 pd META;
